# xmcd
#
# Track frame offsets:
#	182
#	17597
#	34227
#	46385
#	60080
#	70740
#	84350
#	94770
#	107310
#	124827
#
# Disc length: 1813 seconds
#
# Revision: 0
# Processed by: cddbd v1.5.2PL0 Copyright (c) Steve Scherf et al.
# Submitted via: EZCDAudioConverter 7.0.0.1
#
DISCID=6f07130a
DTITLE=Jane - pour l'amour du country
DYEAR=1900
DGENRE=Country
TTITLE0=Seule Sans Ton Amour
TTITLE1=As-Tu Déjà Pleuré ?
TTITLE2=Cheri, Toi et Moi
TTITLE3=L'Appartement Sans Amour
TTITLE4=Moi Je Pleure
TTITLE5=Jones Sur Le Juke-Box
TTITLE6=La Partie N'Est Pas Gagnée
TTITLE7=Whisky
TTITLE8=Oublie-Moi
TTITLE9=Tu sais bien
EXTD=
EXTT0=
EXTT1=
EXTT2=
EXTT3=
EXTT4=
EXTT5=
EXTT6=
EXTT7=
EXTT8=
EXTT9=
PLAYORDER=
